# xmcd
#
# Track frame offsets:
#	182
#	13237
#	27305
#	42402
#	53930
#	69240
#	98317
#	108400
#	124825
#	138717
#	147607
#	160485
#	179457
#	192957
#	202782
#	216560
#
# Disc length: 3116 seconds
# Revision: 0
# Processed by: cddbd v1.5.2PL0 Copyright (c) Steve Scherf et al.
# Submitted via: dBpowerAMP V12.0
#
DISCID=f20c2a10
DTITLE=Various Artist - The Very Best Of Ray Charles
DYEAR=2000
DGENRE=R&B
TTITLE0=Ray Charles - I've Got A Woman
TTITLE1=Ray Charles - A Fool For You
TTITLE2=Ray Charles - Drown In My Own Tears
TTITLE3=Ray Charles - Hallelujah I Love Her So
TTITLE4=Ray Charles - (Night Time Is) The Right Time
TTITLE5=Ray Charles - What'd I Say Parts I and II
TTITLE6=Ray Charles - Sticks and Stones
TTITLE7=Ray Charles - Georgia On My Mind
TTITLE8=Ray Charles - One Mint Julep
TTITLE9=Ray Charles - Hit The Road Jack
TTITLE10=Ray Charles - Unchain My Heart
TTITLE11=Ray Charles - I Can't Stop Loving You
TTITLE12=Ray Charles - You Are My Sunshine
TTITLE13=Ray Charles - Busted
TTITLE14=Ray Charles - Let's Go Get Stoned
TTITLE15=Ray Charles and Willie Nelson - Seven Spanish Angels
EXTD=
EXTT0=
EXTT1=
EXTT2=
EXTT3=
EXTT4=
EXTT5=
EXTT6=
EXTT7=
EXTT8=
EXTT9=
EXTT10=
EXTT11=
EXTT12=
EXTT13=
EXTT14=
EXTT15=
PLAYORDER=
